<mxfile host="65bd71144e">
    <diagram id="lgC0vI8X5FuwqdmXACG5" name="Page-1">
        <mxGraphModel dx="388" dy="412" grid="1" gridSize="10" guides="1" tooltips="1" connect="1" arrows="1" fold="1" page="1" pageScale="1" pageWidth="1100" pageHeight="1700" background="none" math="0" shadow="0">
            <root>
                <mxCell id="0"/>
                <mxCell id="1" parent="0"/>
                <mxCell id="8" value="b=4 w=3" style="ellipse;whiteSpace=wrap;html=1;fillColor=#000000;" parent="1" vertex="1">
                    <mxGeometry x="300" y="390" width="120" height="120" as="geometry"/>
                </mxCell>
                <mxCell id="5" value="b=4 w=3" style="ellipse;whiteSpace=wrap;html=1;fillColor=#000000;" parent="1" vertex="1">
                    <mxGeometry x="300" y="260" width="120" height="120" as="geometry"/>
                </mxCell>
                <mxCell id="2" value="b=1, w&lt;br&gt;=2" style="ellipse;whiteSpace=wrap;html=1;fillColor=#000000;" parent="1" vertex="1">
                    <mxGeometry x="305" y="150" width="110" height="100" as="geometry"/>
                </mxCell>
                <mxCell id="3" value="" style="endArrow=classic;html=1;exitX=1;exitY=0.5;exitDx=0;exitDy=0;" parent="1" edge="1">
                    <mxGeometry width="50" height="50" relative="1" as="geometry">
                        <mxPoint x="405" y="200" as="sourcePoint"/>
                        <mxPoint x="505" y="300" as="targetPoint"/>
                    </mxGeometry>
                </mxCell>
                <mxCell id="4" value="y.append(x*w+b)" style="edgeLabel;html=1;align=center;verticalAlign=middle;resizable=0;points=[];rotation=45;" parent="3" vertex="1" connectable="0">
                    <mxGeometry x="0.6146" relative="1" as="geometry">
                        <mxPoint x="-21" y="-41" as="offset"/>
                    </mxGeometry>
                </mxCell>
                <mxCell id="6" value="" style="endArrow=classic;html=1;exitX=1;exitY=0.5;exitDx=0;exitDy=0;" parent="1" source="5" edge="1">
                    <mxGeometry width="50" height="50" relative="1" as="geometry">
                        <mxPoint x="420" y="310" as="sourcePoint"/>
                        <mxPoint x="506.8518371582031" y="300" as="targetPoint"/>
                    </mxGeometry>
                </mxCell>
                <mxCell id="7" value="y.append(x*w+b)" style="edgeLabel;html=1;align=center;verticalAlign=middle;resizable=0;points=[];rotation=-60;" parent="6" vertex="1" connectable="0">
                    <mxGeometry x="0.6146" relative="1" as="geometry">
                        <mxPoint x="-45" y="66" as="offset"/>
                    </mxGeometry>
                </mxCell>
                <mxCell id="9" value="" style="endArrow=classic;html=1;exitX=1;exitY=0.5;exitDx=0;exitDy=0;" parent="1" source="8" edge="1">
                    <mxGeometry width="50" height="50" relative="1" as="geometry">
                        <mxPoint x="420" y="440" as="sourcePoint"/>
                        <mxPoint x="505" y="300" as="targetPoint"/>
                    </mxGeometry>
                </mxCell>
                <mxCell id="10" value="y.append(x*w+b)" style="edgeLabel;html=1;align=center;verticalAlign=middle;resizable=0;points=[];rotation=-15;" parent="9" vertex="1" connectable="0">
                    <mxGeometry x="0.6146" relative="1" as="geometry">
                        <mxPoint x="-34" y="-29" as="offset"/>
                    </mxGeometry>
                </mxCell>
                <mxCell id="12" value="x = f(sum(y))" style="endArrow=classic;html=1;" parent="1" edge="1">
                    <mxGeometry y="20" width="50" height="50" relative="1" as="geometry">
                        <mxPoint x="500" y="300" as="sourcePoint"/>
                        <mxPoint x="600" y="300" as="targetPoint"/>
                        <mxPoint as="offset"/>
                    </mxGeometry>
                </mxCell>
                <mxCell id="14" value="" style="endArrow=classic;html=1;" parent="1" target="16" edge="1">
                    <mxGeometry width="50" height="50" relative="1" as="geometry">
                        <mxPoint x="600" y="300" as="sourcePoint"/>
                        <mxPoint x="670" y="360" as="targetPoint"/>
                    </mxGeometry>
                </mxCell>
                <mxCell id="15" value="" style="endArrow=classic;html=1;" parent="1" edge="1">
                    <mxGeometry width="50" height="50" relative="1" as="geometry">
                        <mxPoint x="600" y="300" as="sourcePoint"/>
                        <mxPoint x="680" y="210" as="targetPoint"/>
                    </mxGeometry>
                </mxCell>
                <mxCell id="16" value="w=2 b=4" style="ellipse;whiteSpace=wrap;html=1;aspect=fixed;fillColor=#000000;" parent="1" vertex="1">
                    <mxGeometry x="660" y="360" width="80" height="80" as="geometry"/>
                </mxCell>
                <mxCell id="17" value="w=3 b=1" style="ellipse;whiteSpace=wrap;html=1;aspect=fixed;fillColor=#000000;" parent="1" vertex="1">
                    <mxGeometry x="680" y="170" width="80" height="80" as="geometry"/>
                </mxCell>
                <mxCell id="20" value="" style="endArrow=classic;html=1;exitX=1;exitY=0.5;exitDx=0;exitDy=0;" parent="1" edge="1">
                    <mxGeometry width="50" height="50" relative="1" as="geometry">
                        <mxPoint x="760" y="220" as="sourcePoint"/>
                        <mxPoint x="880" y="330" as="targetPoint"/>
                    </mxGeometry>
                </mxCell>
                <mxCell id="21" value="y.append(x*w+b)" style="edgeLabel;html=1;align=center;verticalAlign=middle;resizable=0;points=[];rotation=45;" parent="20" vertex="1" connectable="0">
                    <mxGeometry x="0.6146" relative="1" as="geometry">
                        <mxPoint x="-21" y="-41" as="offset"/>
                    </mxGeometry>
                </mxCell>
                <mxCell id="22" value="" style="endArrow=classic;html=1;exitX=1;exitY=0.5;exitDx=0;exitDy=0;" parent="1" source="16" edge="1">
                    <mxGeometry width="50" height="50" relative="1" as="geometry">
                        <mxPoint x="799.9999999999994" y="475" as="sourcePoint"/>
                        <mxPoint x="885" y="325" as="targetPoint"/>
                    </mxGeometry>
                </mxCell>
                <mxCell id="23" value="y.append(x*w+b)" style="edgeLabel;html=1;align=center;verticalAlign=middle;resizable=0;points=[];rotation=-30;" parent="22" vertex="1" connectable="0">
                    <mxGeometry x="0.6146" relative="1" as="geometry">
                        <mxPoint x="-68" y="21" as="offset"/>
                    </mxGeometry>
                </mxCell>
                <mxCell id="24" value="y&amp;nbsp;= f(sum(y))" style="endArrow=classic;html=1;" parent="1" edge="1">
                    <mxGeometry y="20" width="50" height="50" relative="1" as="geometry">
                        <mxPoint x="880" y="330" as="sourcePoint"/>
                        <mxPoint x="980" y="330" as="targetPoint"/>
                        <mxPoint as="offset"/>
                    </mxGeometry>
                </mxCell>
            </root>
        </mxGraphModel>
    </diagram>
</mxfile>